,
.   http://www.scenetime.com/signup.php  ---&gt;  Hottest scene tracker on the net !!!
 
Scenetime lucky draw is started , join now and be the winner . offer is limited 

    Join Now   http://www.scenetime.com/signup.php

    seed back for speed


 



...................................NFO:.................................................








































          
          
              
              
                    
                    
                    
                    

The.Skin.I.Live.In.2011.HC.ENG.SUBS.R5.DVDRiP.XviD-SiC

Poster:
[img]http://lookpic.com/O/i2/1576/7mmW9XvL.jpeg[/img]

IMDB Link:
http://www.imdb.com/title/tt1189073/

Description:
In honor of his late wife who died in a flaming car accident, scientist, Dr. Robert Ledgard, is trying to synthesize the perfect skin which can withstand burns, cuts or any other kind of damage. As he gets closer to perfecting this skin on his flawless patient, the scientific community starts growing skeptical and his past is revealed that shows how his patient is closely linked to tragic events he would like to forget.  

MediaInfo:
General
Complete name                    : E:\skin\The.Skin.I.Live.In.2011.HC.ENG.SUBS.R5.DVDRiP.XviD-SiC.avi
Format                           : AVI
Format/Info                      : Audio Video Interleave
File size                        : 1.37 GiB
Duration                         : 1h 55mn
Overall bit rate                 : 1 700 Kbps

Video
ID                               : 0
Format                           : MPEG-4 Visual
Format profile                   : Advanced Simple@L5
Format settings, BVOP            : 1
Format settings, QPel            : No
Format settings, GMC             : No warppoints
Format settings, Matrix          : Default (H.263)
Codec ID                         : XVID
Codec ID/Hint                    : XviD
Duration                         : 1h 55mn
Bit rate                         : 1 244 Kbps
Width                            : 720 pixels
Height                           : 384 pixels
Display aspect ratio             : 1.875
Frame rate                       : 25.000 fps
Color space                      : YUV
Chroma subsampling               : 4:2:0
Bit depth                        : 8 bits
Scan type                        : Progressive
Compression mode                 : Lossy
Bits/(Pixel*Frame)               : 0.180
Stream size                      : 1.00 GiB (73%)
Writing library                  : XviD 1.2.1 (UTC 2008-12-04)

Audio
ID                               : 1
Format                           : AC-3
Format/Info                      : Audio Coding 3
Mode extension                   : CM (complete main)
Codec ID                         : 2000
Duration                         : 1h 55mn
Bit rate mode                    : Constant
Bit rate                         : 448 Kbps
Channel(s)                       : 6 channels
Channel positions                : Front: L C R, Side: L R, LFE
Sampling rate                    : 48.0 KHz
Bit depth                        : 16 bits
Compression mode                 : Lossy
Stream size                      : 370 MiB (26%)
Alignment                        : Aligned on interleaves
Interleave, duration             : 64 ms (1.60 video frames)
Interleave, preload duration     : 192 ms
Title                            : skin

Screenshots:
[img]http://img600.imageshack.us/img600/9172/vlcsnap2011120812h55m06.png[/img]
[img]http://img847.imageshack.us/img847/3338/vlcsnap2011120812h54m50.png[/img]
[img]http://img823.imageshack.us/img823/4599/vlcsnap2011120812h54m32.png[/img]
[img]http://img849.imageshack.us/img849/7199/vlcsnap2011120812h54m25.png[/img]
[img]http://img820.imageshack.us/img820/5461/vlcsnap2011120812h59m18.png[/img]


Note : I've been waiting for this movie for a long time, and you should be excited to see it! Ran minimal filters, cropped black bars, hardcoded the english subtitles, and remuxed the original Spanish audio. Enjoy!     

Source: The Skin I Live In (2011)DVD R5 Rip XviD-WDR(THANKS)

Enjoy!

Respects to T00NG0D, CM8, Rx, ELEKTRI4KA, PA, YeFsTe, Box, MrRep and everyone in the struggle...